HIERARCHY
ROOT Hips
{
	OFFSET	0.00	0.00	0.00
	CHANNELS 6 Xposition Yposition Zposition Zrotation Xrotation Yrotation
	JOINT Spine
	{
		OFFSET	 0.00	0.01	 0.00
		CHANNELS 3 Zrotation Xrotation Yrotation
		JOINT Spine1
		{
			OFFSET	 0.00	 2.45913012437421	 0.00
			CHANNELS 3 Zrotation Xrotation Yrotation
            JOINT Neck
            {
                OFFSET	 0.00	 2.48462964506057	 0.00
                CHANNELS 3 Zrotation Xrotation Yrotation
                JOINT Head
                {
                    OFFSET	 0.00	 0.927524780924562	 0.00
                    CHANNELS 3 Zrotation Xrotation Yrotation
                    End Site 
                    {
                        OFFSET	 0.00	 1.14999962169752	 0.00
                    }
                }
            }
			JOINT LeftShoulder
			{
				OFFSET	 0.00	 2.48462964506057	 0.00
				CHANNELS 3 Zrotation Xrotation Yrotation
				JOINT LeftUpArm
				{
					OFFSET	 0.00	 1.24881979654096	 0.00
					CHANNELS 3 Zrotation Xrotation Yrotation
					JOINT LeftForeArm
					{
						OFFSET	 0.00	2.59758046908119	 0.00
						CHANNELS 3 Zrotation Xrotation Yrotation
						JOINT LeftHand
						{
							OFFSET	 0.00	2.45542024364365	 0.00
							CHANNELS 3 Zrotation Xrotation Yrotation
							JOINT LeftHandThumb 
							{
								OFFSET	 0.00	0.00	 0.00
								CHANNELS 3 Zrotation Xrotation Yrotation
								End Site
								{
									OFFSET	 0.00	0.00	1.00000003353624
								}
							}
							JOINT L_Wrist_End 
							{
								OFFSET	 0.00	0.99999967115358	 0.00
								CHANNELS 3 Zrotation Xrotation Yrotation
								End Site 
								{
									OFFSET	 0.00	 0.00	 0.00
								}
							}
						}
					}
				}
			}
			JOINT RightShoulder
			{
				OFFSET	 0.00	 2.48462964506057	 0.00
				CHANNELS 3 Zrotation Xrotation Yrotation
				JOINT RightUpArm
				{
					OFFSET	 0.00	 1.24881979654096	 0.00
					CHANNELS 3 Zrotation Xrotation Yrotation
					JOINT RightForeArm
					{
						OFFSET	 0.00	2.59758046908119	 0.00
						CHANNELS 3 Zrotation Xrotation Yrotation
						JOINT RightHand
						{
							OFFSET	 0.00	2.45542024364365	 0.00
							CHANNELS 3 Zrotation Xrotation Yrotation
							JOINT RightHandThumb 
							{
								OFFSET	 0.00	0.00	 0.00
								CHANNELS 3 Zrotation Xrotation Yrotation
								End Site
								{
									OFFSET	 0.00	0.00	1.00000003353624
								}
							}
							JOINT R_Wrist_End 
							{
								OFFSET	 0.00	0.99999967115358	 0.00
								CHANNELS 3 Zrotation Xrotation Yrotation
								End Site 
								{
									OFFSET	 0.00	 0.00	 0.00
								}
							}
						}
					}
				}
			}
		}
	}
	JOINT LeftUpLeg
	{
		OFFSET	 1.2719394002717	 0.00	 0.00
		CHANNELS 3 Zrotation Xrotation Yrotation
		JOINT LeftLowLeg
		{
			OFFSET	 0.00	-4.3429100912261	 0.00
			CHANNELS 3 Zrotation Xrotation Yrotation
			JOINT LeftFoot
			{
				OFFSET	 0.00	-4.48767017425826	 0.00
				CHANNELS 3 Zrotation Xrotation Yrotation
				JOINT LeftToeBase
                {
                    OFFSET	 0.00	0.00	 1.51507020887566
                    CHANNELS 3 Zrotation Xrotation Yrotation
                    End Site 
                    {
                        OFFSET	 0.00	0.00	 0.75000010571191
                    }
                }
			}
		}
	}
	JOINT RightUpLeg
	{
		OFFSET	 -1.2719393604653	 0.00	 0.00
		CHANNELS 3 Zrotation Xrotation Yrotation
		JOINT RightLowLeg
		{
			OFFSET	 0.00	-4.3429100912261	 0.00
			CHANNELS 3 Zrotation Xrotation Yrotation
			JOINT RightFoot
			{
				OFFSET	 0.00	-4.48767017425826	 0.00
				CHANNELS 3 Zrotation Xrotation Yrotation
				JOINT RightToeBase
                {
                    OFFSET	 0.00	0.00	 1.51507020887566
                    CHANNELS 3 Zrotation Xrotation Yrotation
                    End Site 
                    {
                        OFFSET	 0.00	0.00	 0.749999965609858
                    }
                }   
			}
		}
	}
}
MOTION 
Frames:	10 
Frame Time: 0.02 
 -3.727869873046875 -15.74719970703125 9.292559814453124 -89.1782 81.4569 -1611.15 2.88547 -16.7919 5.1103 -5.37445 13.3968 1.80297 -20.7974 50.5127 386.709 76.1075 -78.1856 87.8629 -115.335 -6.81185 365.414 -47.0242 6.45165 10.2976 0.0 12.7641 0.0 5.81639 -14.9967 6.85752 0.0 0.0 0.0 0.0 0.0 0.0 121.8409 -4.15973 -362.873 42.6256 8.18571 -366.057 0.0 28.5958 0.0 -0.254566 -6.17943 12.0627 0.0 0.0 0.0 0.0 0.0 0.0 -6.52388 -11.0423 -721.721 0.0 15.4184 0.0 -2.25547 -1.2950993 19.0178 0.0 -30.3679 0.0 1.81931 -16.2338 19.6616 0.0 23.4168 0.0 32.282 -8.0842 1.49521 0.0 -17.16995 0.0 
  -3.7212701416015626 -15.749100341796876 9.29322998046875 -89.351 81.5399 -1610.95 2.86714 -16.9235 5.05642 -5.37382 13.5367 1.78585 -20.5662 50.7225 386.402 76.0727 -78.1385 87.8195 -115.2137 -6.96633 365.544 -47.4357 6.15544 9.70764 0.0 12.6426 0.0 5.19751 -15.0304 6.41173 0.0 0.0 0.0 0.0 0.0 0.0 121.8088 -4.12106 -362.928 42.7422 8.20268 -366.092 0.0 28.3831 0.0 -0.1159 -6.05655 11.9324 0.0 0.0 0.0 0.0 0.0 0.0 -6.51031 -10.9609 -721.608 0.0 15.5012 0.0 -2.30656 -1.3227997 18.8932 0.0 -30.368599 0.0 1.77601 -16.1512 19.2495 0.0 23.4497 0.0 32.3741 -7.954399 1.84777 0.0 -17.2288 0.0 
  -3.7119000244140623 -15.75 9.293709716796876 -89.4182 81.8971 -1610.67 2.83564 -16.8828 4.98921 -5.2953 13.767 1.78206 -20.2652 51.0468 385.953 76.0641 -78.1121 87.7667 -115.1828 -7.03026 365.547 -47.718 5.9324 9.62472 0.0 12.4814 0.0 4.98783 -15.017 7.47987 0.0 0.0 0.0 0.0 0.0 0.0 121.7608 -4.2136 -362.871 42.8847 8.11165 -366.119 0.0 28.167 0.0 -0.0189556 -6.16132 11.7691 0.0 0.0 0.0 0.0 0.0 0.0 -6.42436 -10.6341 -721.273 0.0 15.6378 0.0 -2.24584 -1.341299 18.4867 0.0 -30.358 0.0 1.7691 -15.7494 18.8351 0.0 23.5019 0.0 32.2556 -7.9454994 1.9084 0.0 -17.23201 0.0 
  -3.7017001342773437 -15.748499755859376 9.293469848632812 -89.4541 82.3041 -1610.25 2.89208 -16.8931 4.93891 -5.34706 14.1498 1.73156 -19.7367 51.3648 385.245 75.774 -78.0626 87.4298 -115.1533 -6.99138 365.591 -47.8007 5.79117 10.7469 0.0 12.5804 0.0 5.50284 -14.9134 8.12075 0.0 0.0 0.0 0.0 0.0 0.0 121.7558 -4.29385 -362.811 43.0186 7.9321 -366.143 0.0 27.8528 0.0 0.024564 -6.07497 11.7176 0.0 0.0 0.0 0.0 0.0 0.0 -6.3538 -10.2492 -721.013 0.0 15.7504 0.0 -2.23093 -1.3619995 17.9586 0.0 -30.4319 0.0 1.75981 -15.2797 18.5235 0.0 23.6107 0.0 32.1795 -8.0986 1.82337 0.0 -17.19657 0.0 
  -3.6907501220703125 -15.748900146484376 9.29301025390625 -89.4394 82.778 -1609.8 2.91521 -16.9498 4.87687 -5.40379 14.7016 1.72056 -18.9078 51.6008 384.269 75.0304 -77.9241 86.7193 -115.0185 -6.7346 365.679 -47.7866 5.90812 13.3027 0.0 12.4563 0.0 6.32295 -14.6218 9.31437 0.0 0.0 0.0 0.0 0.0 0.0 121.8111 -4.35285 -362.705 43.1028 7.68118 -366.159 0.0 27.5205 0.0 0.157203 -6.1804 11.6523 0.0 0.0 0.0 0.0 0.0 0.0 -6.26587 -9.82641 -720.898 0.0 15.9192 0.0 -2.04599 -1.3673992 17.5509 0.0 -30.4244 0.0 1.79673 -14.7585 18.186 0.0 23.7863 0.0 32.1109 -8.3006 1.67141 0.0 -17.21177 0.0 
  -3.680119934082031 -15.749000244140625 9.292839965820313 -89.2299 83.1398 -1609.5 2.92787 -17.1604 4.83907 -5.39397 15.3153 1.77714 -18.1623 51.7526 383.37 74.048 -77.8243 85.6275 -114.9402 -6.21612 365.818 -47.551 6.21182 17.354 0.0 12.2949 0.0 7.65514 -14.0963 12.9887 0.0 0.0 0.0 0.0 0.0 0.0 121.838 -4.41534 -362.539 43.1818 7.31873 -366.12 0.0 27.0742 0.0 0.327364 -6.15023 11.8568 0.0 0.0 0.0 0.0 0.0 0.0 -6.17261 -9.50108 -720.833 0.0 16.053 0.0 -2.01986 -1.4120998 17.0543 0.0 -30.3909 0.0 1.86221 -14.3162 18.0244 0.0 23.9173 0.0 32.0077 -8.571199 1.35428 0.0 -17.29105 0.0 
  -3.6669000244140624 -15.745999755859375 9.292689819335937 -88.7344 83.4418 -1609.2 2.92399 -17.4522 4.65586 -5.24208 15.8546 1.7107 -18.0314 51.9108 383.038 73.2459 -77.9139 84.4721 -115.1756 -5.67969 366.076 -46.8519 6.74484 23.4488 0.0 12.3983 0.0 9.60747 -13.2919 21.2031 0.0 0.0 0.0 0.0 0.0 0.0 121.720505 -4.55279 -362.447 43.3019 6.91375 -366.263 0.0 26.6252 0.0 0.379896 -6.31837 11.7906 0.0 0.0 0.0 0.0 0.0 0.0 -6.11088 -9.25393 -720.975 0.0 16.2129 0.0 -2.02934 -1.4356003 16.4959 0.0 -30.428299 0.0 1.9008 -13.8571 17.797 0.0 24.0382 0.0 31.9368 -9.0065 0.953464 0.0 -17.34574 0.0 
  -3.6545700073242187 -15.744599609375 9.29041015625 -89.4964 83.697 -1607.49 2.69388 -17.637 4.35355 -5.14483 16.1559 1.62414 -17.5818 52.1898 382.38 72.2637 -77.8832 83.3883 -115.207504 -4.79646 366.115 -46.13 7.15995 30.5045 0.0 12.4476 0.0 6.89708 -13.7078 13.2388 0.0 0.0 0.0 0.0 0.0 0.0 121.6784 -4.72756 -362.385 43.3149 6.43251 -366.618 0.0 25.9798 0.0 0.772109 -6.13364 12.2422 0.0 0.0 0.0 0.0 0.0 0.0 -6.21991 -9.02029 -721.353 0.0 16.3348 0.0 -1.90624 -1.3553009 16.0672 0.0 -30.451199 0.0 1.87125 -13.5006 17.8208 0.0 24.4423 0.0 32.2008 -9.7931 0.589522 0.0 -17.40575 0.0 
  -3.6496200561523438 -15.749000244140625 9.287869873046875 -89.6876 83.7569 -1606.44 2.51338 -17.7512 4.15853 -5.09029 16.1442 1.56085 -17.3756 52.4695 381.999 71.7269 -77.8987 82.6866 -115.4427 -3.8707 366.579 -44.8349 7.99755 38.303 0.0 13.0368 0.0 9.35679 -12.5693 30.2495 0.0 0.0 0.0 0.0 0.0 0.0 121.6253 -4.96824 -362.294 43.5046 5.93848 -367.217 0.0 25.433 0.0 0.536407 -6.83081 12.1982 0.0 0.0 0.0 0.0 0.0 0.0 -6.26114 -9.02284 -721.71 0.0 16.431 0.0 -1.8954 -1.3185005 15.5984 0.0 -30.501099 0.0 1.86869 -13.4568 17.6427 0.0 24.8798 0.0 31.9842 -10.367201 0.144733 0.0 -17.44828 0.0 
  -3.6439199829101563 -15.759200439453124 9.2885400390625 -88.994 83.7867 -1606.29 2.16279 -17.8407 3.77112 -4.55484 15.941 1.50097 -18.1157 52.9531 382.44 72.2479 -78.254 82.8641 -115.9857 -3.2541 366.97 -43.3126 8.89475 46.8037 0.0 14.1577 0.0 12.2187 -12.2226 36.9987 0.0 0.0 0.0 0.0 0.0 0.0 121.4826 -5.18727 -362.156 43.6134 5.42911 -367.481 0.0 24.4557 0.0 0.907568 -6.95401 11.9604 0.0 0.0 0.0 0.0 0.0 0.0 -6.20808 -8.99142 -722.448 0.0 16.3568 0.0 -1.97864 -1.2605 15.4079 0.0 -30.4716 0.0 1.92292 -12.763 18.7485 0.0 23.9474 0.0 32.5103 -11.098301 -0.598273 0.0 -17.59469 0.0 
